# AST/ASF file generated using VICON BodyLanguage
# -----------------------------------------------
:version 1.10
:name VICON
:units
  mass 1.0
  length 0.45
  angle deg
:documentation
   .ast/.asf automatically generated from VICON data using
   VICON BodyBuilder and BodyLanguage model FoxedUp or BRILLIANT.MOD
:root
   order TX TY TZ RX RY RZ
   axis XYZ
   position 0 0 0  
   orientation 0 0 0 
:bonedata
  begin
     id 1 
     name lhipjoint
     direction 0.646657 -0.683706 0.338203 
     length 2.4948 
     axis 0 0 0  XYZ
  end
  begin
     id 2 
     name lfemur
     direction 0.34202 -0.939693 0  
     length 6.79491  
     axis 0 0 20  XYZ
    dof rx ry rz
    limits (-160.0 20.0)
           (-70.0 70.0)
           (-60.0 70.0)
  end
  begin
     id 3 
     name ltibia
     direction 0.34202 -0.939693 0   
     length 7.56807   
     axis 0 0 20   XYZ
    dof rx
    limits (-10.0 170.0)
  end
  begin
     id 4 
     name lfoot
     direction 0.0679796 -0.186772 0.980048   
     length 2.53018   
     axis -90 7.62852e-016 20   XYZ
    dof rx rz
    limits (-45.0 90.0)
           (-70.0 20.0)
  end
  begin
     id 5 
     name ltoes
     direction 1.53625e-011 -4.21881e-011 1   
     length 1.26912   
     axis -90 7.62852e-016 20   XYZ
    dof rx
    limits (-90.0 20.0)
  end
  begin
     id 6 
     name rhipjoint
     direction -0.618868 -0.704065 0.348274   
     length 2.42265  
     axis 0 0 0  XYZ 
  end
  begin
     id 7 
     name rfemur
     direction -0.34202 -0.939693 0   
     length 6.73814   
     axis 0 0 -20   XYZ
    dof rx ry rz
    limits (-160.0 20.0)
           (-70.0 70.0)
           (-70.0 60.0)
  end
  begin
     id 8 
     name rtibia
     direction -0.34202 -0.939693 0   
     length 7.66799   
     axis 0 0 -20   XYZ
    dof rx
    limits (-10.0 170.0)
 end
 begin
     id 9 
     name rfoot
     direction -0.0727352 -0.199838 0.977125   
     length 2.57224  
     axis -90 -7.62852e-016 -20   XYZ
    dof rx rz
    limits (-45.0 90.0)
           (-20.0 70.0)
  end
  begin
     id 10 
     name rtoes
     direction -1.53501e-011 -4.21858e-011 1   
     length 1.28858   
     axis -90 -7.62852e-016 -20   XYZ
    dof rx
    limits (-90.0 20.0)
  end
  begin
     id 11 
     name lowerback
     direction -0.0172471 0.995767 -0.0902851   
     length 2.20206   
     axis 0 0 0   XYZ
    dof rx ry rz
    limits (-20.0 45.0)
           (-30.0 30.0)
           (-30.0 30.0)
  end
  begin
     id 12 
     name upperback
     direction -0.000110737 0.999714 0.0239043   
     length 2.19523   
     axis 0 0 0   XYZ
    dof rx ry rz
    limits (-20.0 45.0)
           (-30.0 30.0)
           (-30.0 30.0)
  end
  begin
     id 13 
     name thorax
     direction 0.00704869 0.997783 0.0661741   
     length 2.21977   
     axis 0 0 0   XYZ
    dof rx ry rz
    limits (-20.0 45.0)
           (-30.0 30.0)
           (-30.0 30.0)
  end
  begin
     id 14 
     name lowerneck
     direction -0.00407501 0.995527 0.0943846   
     length 1.83142   
     axis 0 0 0   XYZ
    dof rx ry rz
    limits (-20.0 45.0)
           (-30.0 30.0)
           (-30.0 30.0)
  end
  begin
     id 15 
     name upperneck
     direction 0.0640586 0.986486 -0.150807   
     length 1.84616   
     axis 0 0 0   XYZ
    dof rx ry rz
    limits (-20.0 45.0)
           (-30.0 30.0)
           (-30.0 30.0)
  end
  begin
     id 16
     name head
     direction 0.0188017 0.99791 -0.0618239  
     length 1.85932  
     axis 0 0 0   XYZ
    dof rx ry rz
    limits (-20.0 45.0)
           (-30.0 30.0)
           (-30.0 30.0)
  end
  begin
     id 17 
     name lclavicle
     direction 0.976074 0.206905 0.066852  
     length 3.81043  
     axis 0 0 0   XYZ
    dof ry rz
    limits (-20.0 10.0)
           (0.0 20.0)
  end
  begin
     id 18 
     name lhumerus
     direction 1 -4.48971e-011 1.86916e-027   
     length 5.37587   
     axis 180 -30 -90   XYZ
    dof rx ry rz
    limits (-60.0 90.0)
           (-90.0 90.0)
           (-90.0 90.0)
  end
  begin
     id 19
     name lradius
     direction 1 -4.48968e-011 1.69187e-027   
     length 3.35977   
     axis 180 -30 -90   XYZ
    dof rx
    limits (-10.0 170.0)
  end
  begin
     id 20
     name lwrist
     direction 1 -4.48968e-011 5.8978e-027   
     length 1.67988   
     axis -3.27506e-015 90 90   XYZ
    dof ry
    limits (-180.0 0.0)
 end
  begin
     id 21 
     name lhand
     direction 1 -4.49028e-011 1.18071e-026   
     length 0.561859   
     axis -7.52654e-015 90 90   XYZ
    dof rx rz
    limits (-90.0 90.0)
           (-45.0 45.0)
  end
  begin
     id 22 
     name lfingers
     direction 1 -4.48927e-011 2.35758e-026   
     length 0.452985   
     axis -1.50534e-014 90 90   XYZ
    dof rx
    limits (0.0 90.0)
  end
  begin
     id 23
     name lthumb
     direction 0.707107 -6.34898e-011 0.707107   
     length 0.650399   
     axis -90 45 5.69224e-014   XYZ
    dof rx rz
    limits (-45.0 45.0)
           (-45.0 45.0)
  end
  begin
     id 24 
     name rclavicle
     direction -0.988403 0.151789 0.00439714   
     length 3.6942  
     axis 0 0 0   XYZ 
    dof ry rz
    limits (-10.0 20.0)
           (-20.0 0.0)
  end
  begin
     id 25 
     name rhumerus
     direction -1 -4.48978e-011 1.62495e-027  
     length 5.22819   
     axis 180 30 90   XYZ
    dof rx ry rz
    limits (-90.0 60.0)
           (-90.0 90.0)
           (-90.0 90.0)
  end
  begin
     id 26 
     name rradius
     direction -1 -4.48961e-011 3.47796e-027   
     length 3.40764   
     axis 180 30 90   XYZ
    dof rx
    limits (-10.0 170.0)
  end
  begin
     id 27 
     name rwrist
     direction -1 -4.48949e-011 5.89602e-027   
     length 1.70382   
     axis -3.27506e-015 -90 -90   XYZ
    dof ry
    limits (-180.0 0.0)
  end
  begin
     id 28
     name rhand
     direction -1 -4.48977e-011 1.17973e-026   
     length 0.583255   
     axis -7.52654e-015 -90 -90   XYZ
    dof rx rz
    limits (-90.0 90.0)
           (-45.0 45.0)
  end
  begin
     id 29
     name rfingers
     direction -1 -4.49099e-011 2.36408e-026   
     length 0.470235   
     axis -1.50534e-014 -90 -90   XYZ
    dof rx
    limits (0.0 90.0)
  end
  begin
     id 30
     name rthumb
     direction -0.707107 -6.35011e-011 0.707107   
     length 0.675167   
     axis -90 -45 -5.69224e-014   XYZ
    dof rx rz
    limits (-45.0 45.0)
           (-45.0 45.0)
  end
:hierarchy
  begin
    root lhipjoint rhipjoint lowerback
    lhipjoint lfemur
    lfemur ltibia
    ltibia lfoot
    lfoot ltoes
    rhipjoint rfemur
    rfemur rtibia
    rtibia rfoot
    rfoot rtoes
    lowerback upperback
    upperback thorax
    thorax lowerneck lclavicle rclavicle
    lowerneck upperneck
    upperneck head
    lclavicle lhumerus
    lhumerus lradius
    lradius lwrist
    lwrist lhand lthumb
    lhand lfingers
    rclavicle rhumerus
    rhumerus rradius
    rradius rwrist
    rwrist rhand rthumb
    rhand rfingers
  end

#!OML:ASF G:\JayActor3\Patient Classification 1\Patient 1\Session 2\male.ASF
:FULLY-SPECIFIED
:DEGREES
530
root -39.6613 16.5339 -2.80179 -357.324 79.9163 360.083
lowerback 1.83991 0.385501 -5.74763
upperback 6.11736 0.786153 -0.992164
thorax 5.2721 0.203119 2.21068
lowerneck -9.82125 -2.20912 -0.831225
upperneck 22.6381 -2.56999 0.114384
head 8.68118 -1.12933 -0.0646607
rclavicle 1.47101e-014 -3.18055e-015
rhumerus -36.6202 -3.06349 -83.4521
rradius 18.7699
rwrist 8.86439
rhand -12.3515 2.83661
rfingers 7.12502
rthumb 13.7183 -26.6912
lclavicle 1.47101e-014 -3.18055e-015
lhumerus -28.4992 -43.1836 94.0349
lradius 59.9049
lwrist 29.2284
lhand -16.6701 19.0594
lfingers 7.12502
lthumb 9.55365 48.8228
rfemur -18.8969 11.5449 13.7794
rtibia 41.7548
rfoot -24.1044 -4.06938
rtoes 16.4744
lfemur -11.9946 0.955535 -21.8155
ltibia 31.2687
lfoot -17.6936 -18.7756
ltoes -5.63168
531
root -39.6507 16.5388 -2.73491 -357.111 80.6383 360.369
lowerback 1.82721 0.462222 -5.68717
upperback 6.07987 0.888736 -1.02349
thorax 5.23159 0.259836 2.14706
lowerneck -9.8557 -2.33235 -0.910483
upperneck 22.7149 -2.7706 0.332129
head 8.71964 -1.2051 0.00082286
rclavicle -1.19271e-014 -2.3059e-014
rhumerus -36.2245 -2.60873 -83.6693
rradius 18.9441
rwrist 8.71251
rhand -12.6329 2.94439
rfingers 7.12502
rthumb 13.447 -26.6016
lclavicle -1.19271e-014 -2.3059e-014
lhumerus -28.0345 -41.7189 93.6781
lradius 57.7975
lwrist 28.8675
lhand -17.9511 19.1189
lfingers 7.12502
lthumb 8.3175 48.9352
rfemur -18.4715 11.2352 14.0392
rtibia 41.6246
rfoot -24.3367 -4.20607
rtoes 16.8563
lfemur -11.9154 0.497996 -21.6466
ltibia 31.3227
lfoot -17.5731 -18.652
ltoes -5.83972
532
root -39.6397 16.5435 -2.67053 -357.122 81.3492 360.414
lowerback 1.80405 0.52634 -5.56178
upperback 6.03887 0.973417 -1.04987
thorax 5.19512 0.310279 2.05198
lowerneck -9.9364 -2.43894 -0.953086
upperneck 22.8268 -2.94663 0.512967
head 8.77797 -1.26937 0.0494824
rclavicle 1.59028e-015 2.22639e-014
rhumerus -35.8182 -2.05982 -83.9164
rradius 19.1877
rwrist 8.4183
rhand -12.9172 3.02025
rfingers 7.12502
rthumb 13.173 -26.5436
lclavicle 1.59028e-015 2.22639e-014
lhumerus -27.5399 -40.1161 93.283
lradius 55.5962
lwrist 28.4905
lhand -19.3362 19.1455
lfingers 7.12502
lthumb 6.98063 49.0104
rfemur -18.0553 10.836 14.3195
rtibia 41.4546
rfoot -24.4927 -4.24484
rtoes 17.2484
lfemur -11.8901 0.0626975 -21.4517
ltibia 31.4401
lfoot -17.4734 -18.4686
ltoes -6.04827
533
root -39.6291 16.5483 -2.60846 -357.412 82.065 360.156
lowerback 1.77116 0.572178 -5.3769
upperback 5.99106 1.03219 -1.06819
thorax 5.15946 0.35013 1.93155
lowerneck -10.0659 -2.52821 -0.961677
upperneck 22.9741 -3.09678 0.656528
head 8.85665 -1.32164 0.0816983
rclavicle -2.18663e-014 4.77083e-015
rhumerus -35.4071 -1.40802 -84.1922
rradius 19.5095
rwrist 7.96552
rhand -13.1978 3.04931
rfingers 7.12502
rthumb 12.9025 -26.5318
lclavicle -2.18663e-014 4.77083e-015
lhumerus -27.0195 -38.3683 92.8468
lradius 53.3237
lwrist 28.0697
lhand -20.7809 19.1362
lfingers 7.12502
lthumb 5.58589 49.0425
rfemur -17.6588 10.3569 14.6236
rtibia 41.2517
rfoot -24.5908 -4.21576
rtoes 17.6278
lfemur -11.935 -0.346771 -21.2288
ltibia 31.6237
lfoot -17.3871 -18.2373
ltoes -6.21878
534
root -39.6189 16.553 -2.54848 -358.055 82.7852 359.525
lowerback 1.72906 0.600115 -5.1406
upperback 5.9381 1.06565 -1.07685
thorax 5.12599 0.379167 1.79196
lowerneck -10.2295 -2.60276 -0.949723
upperneck 23.1441 -3.2251 0.774385
head 8.94891 -1.36391 0.103427
rclavicle -5.1684e-015 -6.36111e-015
rhumerus -34.9975 -0.652085 -84.4918
rradius 19.9151
rwrist 7.3548
rhand -13.4753 3.03318
rfingers 7.12502
rthumb 12.635 -26.5647
lclavicle -5.1684e-015 -6.36111e-015
lhumerus -26.4756 -36.4708 92.3672
lradius 50.9984
lwrist 27.5713
lhand -22.2306 19.1028
lfingers 7.12502
lthumb 4.18609 49.0415
rfemur -17.2811 9.82531 14.954
rtibia 41.0228
rfoot -24.6503 -4.14873
rtoes 17.9766
lfemur -12.0468 -0.723192 -20.9801
ltibia 31.8726
lfoot -17.3066 -17.9584
ltoes -6.31969
535
root -39.6091 16.5577 -2.49029 -359.138 83.5061 358.437
lowerback 1.6809 0.611947 -4.86379
upperback 5.88058 1.07615 -1.07498
thorax 5.09316 0.398026 1.64016
lowerneck -10.402 -2.66785 -0.936982
upperneck 23.3161 -3.33976 0.885759
head 9.04373 -1.40002 0.124049
rclavicle -3.37934e-015 -1.51076e-014
rhumerus -34.5966 0.201179 -84.807
rradius 20.4059
rwrist 6.59973
rhand -13.754 2.98914
rfingers 7.12502
rthumb 12.3663 -26.6251
lclavicle -3.37934e-015 -1.51076e-014
lhumerus -25.9118 -34.4196 91.8433
lradius 48.6338
lwrist 26.958
lhand -23.6279 19.0634
lfingers 7.12502
lthumb 2.83667 49.0243
rfemur -16.9211 9.27161 15.3118
rtibia 40.7752
rfoot -24.6894 -4.07489
rtoes 18.2869
lfemur -12.2201 -1.05967 -20.7101
ltibia 32.1839
lfoot -17.2246 -17.6293
ltoes -6.33231
536
root -39.5998 16.5621 -2.43353 -360.77 84.225 356.789
lowerback 1.62904 0.608635 -4.56012
upperback 5.82144 1.06524 -1.06203
thorax 5.06234 0.406798 1.48433
lowerneck -10.5651 -2.72854 -0.938338
upperneck 23.4723 -3.44834 1.00494
head 9.13209 -1.4337 0.150453
rclavicle -5.96354e-016 1.19271e-014
rhumerus -34.2072 1.13855 -85.127
rradius 20.9815
rwrist 5.7219
rhand -14.0379 2.93728
rfingers 7.12502
rthumb 12.0926 -26.6933
lclavicle -5.96354e-016 1.19271e-014
lhumerus -25.3299 -32.2102 91.2726
lradius 46.2415
lwrist 26.1948
lhand -24.9208 19.0449
lfingers 7.12502
lthumb 1.58809 49.0188
rfemur -16.5752 8.72188 15.6966
rtibia 40.5163
rfoot -24.7271 -4.02101
rtoes 18.568
lfemur -12.4455 -1.35412 -20.4252
ltibia 32.5532
lfoot -17.1351 -17.2446
ltoes -6.25733
537
root -39.591 16.5663 -2.37787 -363.108 84.936 354.432
lowerback 1.57769 0.592657 -4.24208
upperback 5.76112 1.03629 -1.03879
thorax 5.03108 0.406684 1.33058
lowerneck -10.7029 -2.78929 -0.961509
upperneck 23.6 -3.55734 1.14016
head 9.20701 -1.46811 0.186341
rclavicle 2.18663e-015 5.56597e-015
rhumerus -33.8346 2.13854 -85.4396
rradius 21.6411
rwrist 4.74726
rhand -14.3267 2.89515
rfingers 7.12502
rthumb 11.8141 -26.7516
lclavicle 2.18663e-015 5.56597e-015
lhumerus -24.7394 -29.8445 90.6554
lradius 43.8343
lwrist 25.2569
lhand -26.0747 19.057
lfingers 7.12502
lthumb 0.473629 49.0363
rfemur -16.2416 8.19673 16.1057
rtibia 40.2539
rfoot -24.7781 -4.0053
rtoes 18.8372
lfemur -12.7136 -1.60601 -20.1333
ltibia 32.9757
lfoot -17.0378 -16.7927
ltoes -6.12008
538
root -39.5828 16.5699 -2.32312 -366.377 85.6281 351.141
lowerback 1.5289 0.566889 -3.92138
upperback 5.70079 0.993449 -1.00641
thorax 4.99893 0.399272 1.18432
lowerneck -10.8159 -2.85183 -1.00302
upperneck 23.6974 -3.66891 1.28773
head 9.26771 -1.50447 0.229654
rclavicle -4.57205e-015 7.95139e-016
rhumerus -33.4799 3.17651 -85.7322
rradius 22.3831
rwrist 3.70079
rhand -14.6156 2.86966
rfingers 7.12502
rthumb 11.5355 -26.7929
lclavicle -4.57205e-015 7.95139e-016
lhumerus -24.1501 -27.3317 89.9916
lradius 41.4271
lwrist 24.1393
lhand -27.0736 19.1021
lfingers 7.12502
lthumb -0.491183 49.0813
rfemur -15.9216 7.70926 16.5338
rtibia 39.9955
rfoot -24.8506 -4.03472
rtoes 19.1103
lfemur -13.0157 -1.81568 -19.8437
ltibia 33.4469
lfoot -16.9375 -16.2557
ltoes -5.97235
539
root -39.5753 16.5729 -2.26918 -370.927 86.2873 346.571
lowerback 1.48463 0.534218 -3.60685
upperback 5.63991 0.940744 -0.966643
thorax 4.96381 0.386279 1.0487
lowerneck -10.9062 -2.91571 -1.05577
upperneck 23.7652 -3.78212 1.44108
head 9.31448 -1.54253 0.277024
rclavicle -9.74045e-015 1.11319e-014
rhumerus -33.1449 4.22752 -85.9944
rradius 23.2059
rwrist 2.60459
rhand -14.8986 2.85878
rfingers 7.12502
rthumb 11.2625 -26.8189
lclavicle -9.74045e-015 1.11319e-014
lhumerus -23.5754 -24.6954 89.2836
lradius 39.0367
lwrist 22.8616
lhand -27.9209 19.1691
lfingers 7.12502
lthumb -1.30951 49.1448
rfemur -15.6198 7.26392 16.9736
rtibia 39.7483
rfoot -24.9461 -4.10563
rtoes 19.3977
lfemur -13.3457 -1.98218 -19.5654
ltibia 33.9627
lfoot -16.8435 -15.6144
ltoes -5.87249
540
root -39.5685 16.5752 -2.21606 -377.278 86.893 340.199
lowerback 1.44418 0.498035 -3.30515
upperback 5.57802 0.882966 -0.920943
thorax 4.92529 0.369841 0.926078
lowerneck -10.9794 -2.97913 -1.11077
upperneck 23.8061 -3.89405 1.59094
head 9.34893 -1.58113 0.323995
rclavicle 8.74653e-015 0
rhumerus -32.8295 5.26997 -86.2179
rradius 24.1073
rwrist 1.47713
rhand -15.1715 2.85331
rfingers 7.12502
rthumb 10.9994 -26.8385
lclavicle 8.74653e-015 0
lhumerus -23.0273 -21.9747 88.5366
lradius 36.6784
lwrist 21.467
lhand -28.6356 19.2434
lfingers 7.12502
lthumb -1.99978 49.2138
rfemur -15.3438 6.85778 17.4161
rtibia 39.5194
rfoot -25.0596 -4.20427
rtoes 19.702
lfemur -13.6984 -2.09982 -19.3066
ltibia 34.5185
lfoot -16.765 -14.8528
ltoes -5.87269
541
root -39.5625 16.5766 -2.1639 -386.12 87.4159 331.332
lowerback 1.40572 0.461734 -3.02038
upperback 5.5147 0.824876 -0.870464
thorax 4.88375 0.352174 0.817707
lowerneck -11.0418 -3.03971 -1.16175
upperneck 23.8233 -4.00083 1.73007
head 9.37288 -1.61873 0.367346
rclavicle -1.59028e-015 7.95139e-015
rhumerus -32.5325 6.28909 -86.3979
rradius 25.0841
rwrist 0.333403
rhand -15.436 2.84962
rfingers 7.12502
rthumb 10.7442 -26.8556
lclavicle -1.59028e-015 7.95139e-015
lhumerus -22.5155 -19.2221 87.7588
lradius 34.363
lwrist 20.0131
lhand -29.2415 19.3126
lfingers 7.12502
lthumb -2.58495 49.2766
rfemur -15.1029 6.4812 17.8517
rtibia 39.3153
rfoot -25.1799 -4.30894
rtoes 20.0178
lfemur -14.0684 -2.15919 -19.0751
ltibia 35.1077
lfoot -16.7136 -13.9577
ltoes -6.0107
542
root -39.5573 16.577 -2.11282 -398.146 87.8232 319.277
lowerback 1.36727 0.427044 -2.75566
upperback 5.45127 0.769049 -0.81562
thorax 4.84163 0.334423 0.725023
lowerneck -11.096 -3.09492 -1.2068
upperneck 23.8175 -4.09845 1.855
head 9.38678 -1.6537 0.405971
rclavicle -2.5842e-015 0
rhumerus -32.2514 7.27578 -86.5325
rradius 26.1315
rwrist -0.81121
rhand -15.6966 2.84506
rfingers 7.12502
rthumb 10.4928 -26.8731
lclavicle -2.5842e-015 0
lhumerus -22.046 -16.4977 86.961
lradius 32.0956
lwrist 18.5568
lhand -29.7569 19.3745
lfingers 7.12502
lthumb -3.08269 49.332
rfemur -14.9008 6.11903 18.2725
rtibia 39.142
rfoot -25.2964 -4.39776
rtoes 20.336
lfemur -14.4456 -2.15161 -18.877
ltibia 35.7207
lfoot -16.6988 -12.9269
ltoes -6.29929
543
root -39.5526 16.5762 -2.06299 -413.307 88.0778 304.085
lowerback 1.32759 0.395763 -2.51132
upperback 5.38775 0.717958 -0.756819
thorax 4.79964 0.317834 0.647876
lowerneck -11.1403 -3.14345 -1.24744
upperneck 23.7898 -4.18458 1.96566
head 9.39063 -1.68513 0.44039
rclavicle -6.55989e-015 -1.51076e-014
rhumerus -31.985 8.22513 -86.6226
rradius 27.2423
rwrist -1.9381
rhand -15.961 2.84751
rfingers 7.12502
rthumb 10.2378 -26.8833
lclavicle -6.55989e-015 -1.51076e-014
lhumerus -21.6252 -13.8614 86.1548
lradius 29.8774
lwrist 17.1395
lhand -30.1873 19.4305
lfingers 7.12502
lthumb -3.49838 49.3816
rfemur -14.7402 5.75603 18.6722
rtibia 39.004
rfoot -25.3973 -4.45158
rtoes 20.6429
lfemur -14.8191 -2.06867 -18.7165
ltibia 36.3442
lfoot -16.7279 -11.7641
ltoes -6.73231
544
root -39.5482 16.5742 -2.01448 -429.969 88.1623 287.394
lowerback 1.28456 0.367009 -2.28902
upperback 5.32812 0.670724 -0.693464
thorax 4.76323 0.301895 0.587831
lowerneck -11.1775 -3.18399 -1.28572
upperneck 23.7424 -4.25704 2.06266
head 9.38572 -1.71211 0.471362
rclavicle -2.98177e-015 1.11319e-014
rhumerus -31.727 9.13686 -86.6703
rradius 28.4061
rwrist -3.02304
rhand -16.2347 2.86702
rfingers 7.12502
rthumb 9.97378 -26.8767
lclavicle -2.98177e-015 1.11319e-014
lhumerus -21.2555 -11.3639 85.3506
lradius 27.7109
lwrist 15.7792
lhand -30.5207 19.4867
lfingers 7.12502
lthumb -3.82025 49.4322
rfemur -14.6146 5.3793 19.0482
rtibia 38.9025
rfoot -25.477 -4.4613
rtoes 20.9256
lfemur -15.1737 -1.90928 -18.5958
ltibia 36.9614
lfoot -16.801 -10.4845
ltoes -7.29172
